<?xml version="1.0" encoding="utf-8"?>
<!-- Generator: Adobe Illustrator 27.4.1, SVG Export Plug-In . SVG Version: 6.00 Build 0)  -->
<svg version="1.1" id="Layer_1" xmlns="http://www.w3.org/2000/svg" xmlns:xlink="http://www.w3.org/1999/xlink" x="0px" y="0px"
	 viewBox="0 0 70 60" style="enable-background:new 0 0 70 60;" xml:space="preserve">
<style type="text/css">
	.st0{fill:none;stroke:#78D5A9;stroke-width:2.0225;stroke-miterlimit:2.6966;}
	.st1{fill:#241C3C;}
	.st2{fill:#78D5A9;}
</style>
<path class="st0" d="M48.7,8.3l12.8,25.9c1.9,3.8,0.3,8.3-3.7,10.1l-26,11.4c-3.9,1.7-8.6,0-10.5-3.8L8.5,25.9
	c-1.9-3.8-0.3-8.3,3.7-10.1l26-11.4C42.1,2.7,46.8,4.4,48.7,8.3z"/>
<path class="st1" d="M41.8,7.1l17.9,17.4c3.5,3.4,3.4,8.7-0.2,12L41.7,52.8c-3.6,3.3-9.3,3.2-12.8-0.2L11,35.1
	c-3.5-3.4-3.4-8.7,0.2-12L29,6.9C32.6,3.7,38.3,3.8,41.8,7.1z"/>
<g>
	<path class="st2" d="M45.9,19.6c0.1,0.3,0.2,0.6,0.2,0.8c0,0.5,0.1,0.8,0.1,1.4c-0.3,3.1-1.2,7.1-1.2,7.1c-0.2,1-0.9,4.4-0.6,8.6
		c0.1,1.4,0.2,2.5,0.4,3.3c-1.5-0.4-2.6-0.9-3.1-1.6c-0.6-0.7-0.8-1.6-0.8-2.8c0-0.7,0.2-2.4,0.6-5.2c0.5-3.7,1.7-7.1,1-10.7
		c-0.2-1.2-0.6-2.2-0.8-2.8c0.3,0.1,3.2,1,3.7,1.2C45.4,19,45.6,19,45.9,19.6z"/>
</g>
<g>
	<path class="st2" d="M28.7,19.6c0.1,0.3,0.2,0.6,0.2,0.8c0,0.5,0.1,0.8,0.1,1.4c-0.3,3.1-1.2,7.1-1.2,7.1c-0.2,1-0.9,4.4-0.6,8.6
		c0.1,1.4,0.2,2.5,0.4,3.3c-1.5-0.4-2.6-0.9-3.1-1.6c-0.6-0.7-0.8-1.6-0.8-2.8c0-0.7,0.2-2.4,0.6-5.2c0.7-4.6,1-8.2,1-10.7
		c0-0.5,0-1.3-0.1-2.2c1.4,0.1,2.4,0.3,3,0.6C28.4,19,28.6,19.3,28.7,19.6z"/>
</g>
<g>
	<path class="st2" d="M34.2,31.7c-0.1,0-0.3,0-0.6-0.3c-0.3-0.2-0.5-0.4-0.7-0.7c-1.4-2-2.9-4.8-2.9-4.8c-0.4-0.7-1.7-3.1-4-5.2
		c-0.8-0.7-1.5-1.2-2-1.5c1.2-1,2.1-1.5,2.8-1.6c0.7-0.1,1.3,0.2,2,0.9c0.4,0.4,1.1,1.5,2.3,3.3c0.3,0.5,2.1,3.8,4.9,6.7
		c0.5,0.5,0.9,0.9,1.2,1.1c-0.9,1.1-1.7,1.8-2.2,2C34.8,31.6,34.5,31.7,34.2,31.7z"/>
	<polyline class="st2" points="32.2,29.7 33,30.5 34.2,31.7 	"/>
</g>
<path class="st2" d="M33.4,29.1"/>
<path class="st2" d="M34.6,30.2"/>
<path class="st2" d="M38.5,33.6"/>
<path class="st2" d="M38,32.2"/>
<g>
	<path class="st2" d="M33.6,28.6c0-0.1-0.1-0.2,0.1-0.5c0.2-0.4,0.3-0.5,0.4-0.8c0.2-0.3,0.4-0.5,0.4-0.5c1-1.1,3.7-3.4,5.3-5.8
		c0.9-1.3,1.3-2.4,1.4-2.7c0.1-0.3,0.2-0.5,0.3-0.7c0.2,0.1,1.7,0.6,1.9,1.9c0.1,0.5-0.1,0.8-0.3,1.5c-0.3,0.7-0.6,1.2-1.8,2.8
		c-0.8,1.1-0.7,1-0.8,1.1c-1.4,1.9-2.2,3.1-3.5,4.5c-0.2,0.3-0.6,0.7-1.1,1.2c-1.2-0.6-2-1.2-2.2-1.5C33.8,29.2,33.7,28.9,33.6,28.6
		z"/>
	<polyline class="st2" points="35.6,26.7 35,27.5 34.2,28.6 	"/>
</g>
<path class="st2" d="M33.8,23.4"/>
</svg>
